<svg width="16" height="15" viewBox="0 0 16 15" fill="none" xmlns="http://www.w3.org/2000/svg">
<path d="M9.8989 4.50697C9.048 4.44347 8.5527 4.72287 8.5527 5.58647V5.64997H9.8989V7.22477H8.5527V12H6.9144V7.22477H6V5.64997H6.9144V5.58647C6.9144 3.83387 7.8796 2.80517 9.8989 2.93217V4.50697Z" fill="white"/>
<path fill-rule="evenodd" clip-rule="evenodd" d="M11.5 1.8H4.5C3.00883 1.8 1.8 3.00883 1.8 4.5V10.5C1.8 11.9912 3.00883 13.2 4.5 13.2H11.5C12.9912 13.2 14.2 11.9912 14.2 10.5V4.5C14.2 3.00883 12.9912 1.8 11.5 1.8ZM4.5 0C2.01472 0 0 2.01472 0 4.5V10.5C0 12.9853 2.01472 15 4.5 15H11.5C13.9853 15 16 12.9853 16 10.5V4.5C16 2.01472 13.9853 0 11.5 0H4.5Z" fill="white"/>
</svg>
