<svg width="66" height="66" viewBox="0 0 66 66" fill="none" xmlns="http://www.w3.org/2000/svg">
<rect width="66" height="66" rx="33" fill="#0B1D26"/>
<path d="M31.6063 15.4633C29.8453 17.9581 29.4784 19.5724 28.5245 19.5724C28.1576 19.5724 27.9375 19.1321 27.9375 18.4717C27.9375 17.4445 29.0381 14.7296 31.4595 11.6478C33.1471 9.51994 34.5413 8.41931 36.3023 8.41931C37.4029 8.41931 38.0633 9.15306 38.0633 10.2537C38.0633 12.0881 35.3484 16.3438 33.5874 16.3438C32.927 16.3438 32.34 15.977 31.6063 15.4633Z" fill="#FBD784"/>
<path d="M23.3883 44.8867C22.6546 45.4004 21.9208 45.914 21.2604 46.4276L21.1871 43.4926C24.1954 40.2641 26.9837 37.109 29.4785 33.8804C28.1577 33.6603 26.9103 33.5136 25.8097 33.5136C25.4428 33.5136 24.9292 33.5136 24.4156 33.5136C23.9753 33.5136 23.7552 33.3668 23.7552 33.0733C23.7552 32.2662 26.1766 28.3773 28.011 27.0565C29.2583 26.176 31.6063 25.8092 35.1284 25.8092C38.2101 21.6268 39.2374 19.5723 43.6399 19.5723C44.3736 19.5723 45.1074 20.0859 45.1074 20.5995C45.1074 21.2599 44.8139 21.7735 44.2269 22.4339L41.2919 25.8825C43.7133 26.0293 44.9606 26.5429 44.9606 27.2033C44.9606 27.4234 43.5665 30.2117 40.6315 32.9266C39.2374 34.1739 38.2835 34.5408 36.5225 34.5408C35.5686 34.5408 34.9082 34.5408 34.3946 34.4674C29.9187 40.044 28.0843 45.6939 28.0843 48.9958C28.0843 50.3899 28.7447 51.0503 29.9187 51.0503C31.8998 51.0503 36.0089 48.1153 42.5393 42.2452L42.6126 45.2536C34.9082 53.545 28.8181 57.5807 25.1493 57.5807C22.4344 57.5807 20.8936 55.9664 20.8936 53.1781C20.8936 50.9769 21.6273 48.1153 23.3883 44.8867Z" fill="#FBD784"/>
</svg>
