<svg width="49" height="50" viewBox="0 0 49 50" fill="none" xmlns="http://www.w3.org/2000/svg">
<path d="M23.1063 7.87117C21.3453 10.3659 20.9784 11.9802 20.0245 11.9802C19.6576 11.9802 19.4375 11.5399 19.4375 10.8796C19.4375 9.85231 20.5381 7.13742 22.9595 4.05566C24.6471 1.92778 26.0413 0.827148 27.8023 0.827148C28.9029 0.827148 29.5633 1.5609 29.5633 2.66153C29.5633 4.49591 26.8484 8.75168 25.0874 8.75168C24.427 8.75168 23.84 8.3848 23.1063 7.87117Z" fill="#0B1D26"/>
<path d="M14.8883 37.2946C14.1546 37.8082 13.4208 38.3218 12.7604 38.8355L12.6871 35.9004C15.6954 32.6719 18.4837 29.5168 20.9785 26.2883C19.6577 26.0682 18.4103 25.9214 17.3097 25.9214C16.9428 25.9214 16.4292 25.9214 15.9156 25.9214C15.4753 25.9214 15.2552 25.7747 15.2552 25.4812C15.2552 24.674 17.6766 20.7851 19.511 19.4644C20.7583 18.5839 23.1063 18.217 26.6284 18.217C29.7101 14.0346 30.7374 11.9801 35.1399 11.9801C35.8736 11.9801 36.6074 12.4937 36.6074 13.0074C36.6074 13.6677 36.3139 14.1814 35.7269 14.8417L32.7919 18.2904C35.2133 18.4371 36.4606 18.9508 36.4606 19.6111C36.4606 19.8313 35.0665 22.6195 32.1315 25.3344C30.7374 26.5818 29.7835 26.9487 28.0225 26.9487C27.0686 26.9487 26.4082 26.9487 25.8946 26.8753C21.4187 32.4518 19.5843 38.1017 19.5843 41.4036C19.5843 42.7977 20.2447 43.4581 21.4187 43.4581C23.3998 43.4581 27.5089 40.5231 34.0393 34.6531L34.1126 37.6615C26.4082 45.9529 20.3181 49.9885 16.6493 49.9885C13.9344 49.9885 12.3936 48.3742 12.3936 45.586C12.3936 43.3847 13.1273 40.5231 14.8883 37.2946Z" fill="#0B1D26"/>
</svg>
