<svg width="47" height="7" viewBox="0 0 47 7" fill="none" xmlns="http://www.w3.org/2000/svg">
<path d="M46.4785 4.26087C46.6946 4.26087 46.8698 4.08568 46.8698 3.86956C46.8698 3.65345 46.6946 3.47826 46.4785 3.47826L46.4785 4.26087ZM0.288776 3.59286C0.135963 3.74568 0.135963 3.99344 0.288776 4.14625L2.77902 6.6365C2.93184 6.78931 3.1796 6.78931 3.33241 6.6365C3.48523 6.48368 3.48523 6.23592 3.33241 6.08311L1.11886 3.86956L3.33241 1.656C3.48523 1.50319 3.48523 1.25543 3.33241 1.10262C3.1796 0.949803 2.93184 0.949803 2.77902 1.10262L0.288776 3.59286ZM46.4785 3.47826L0.565472 3.47825L0.565472 4.26086L46.4785 4.26087L46.4785 3.47826Z" fill="black"/>
</svg>
