<svg width="47" height="7" viewBox="0 0 47 7" fill="none" xmlns="http://www.w3.org/2000/svg">
<path d="M0.564453 2.73913C0.348342 2.73913 0.173149 2.91432 0.173149 3.13044C0.173149 3.34655 0.348342 3.52174 0.564453 3.52174L0.564453 2.73913ZM46.7542 3.40713C46.907 3.25432 46.907 3.00656 46.7542 2.85375L44.2639 0.3635C44.1111 0.210686 43.8634 0.210686 43.7106 0.3635C43.5577 0.516314 43.5577 0.764074 43.7106 0.916888L45.9241 3.13044L43.7106 5.34399C43.5577 5.49681 43.5577 5.74457 43.7106 5.89738C43.8634 6.05019 44.1111 6.05019 44.2639 5.89738L46.7542 3.40713ZM0.564453 3.52174L46.4775 3.52174L46.4775 2.73914L0.564453 2.73913L0.564453 3.52174Z" fill="black"/>
</svg>
