<svg width="18" height="19" viewBox="0 0 18 19" fill="none" xmlns="http://www.w3.org/2000/svg">
<path d="M5.85 2.25H12.15C14.5524 2.25 16.5 4.19756 16.5 6.6V12.9C16.5 15.3025 14.5524 17.25 12.15 17.25H5.85C3.44756 17.25 1.5 15.3025 1.5 12.9V6.6C1.5 4.19756 3.44756 2.25 5.85 2.25ZM5.7 3.74998C4.20883 3.74998 3 4.95882 3 6.44998V13.05C3 14.5411 4.20883 15.75 5.7 15.75H12.3C13.7912 15.75 15 14.5411 15 13.05V6.44998C15 4.95882 13.7912 3.74998 12.3 3.74998H5.7ZM12.9375 4.87498C13.4553 4.87498 13.875 5.29472 13.875 5.81248C13.875 6.33025 13.4553 6.74998 12.9375 6.74998C12.4197 6.74998 12 6.33025 12 5.81248C12 5.29472 12.4197 4.87498 12.9375 4.87498ZM9 5.99998C11.071 5.99998 12.75 7.67892 12.75 9.74998C12.75 11.821 11.071 13.5 9 13.5C6.92893 13.5 5.25 11.821 5.25 9.74998C5.25 7.67892 6.92893 5.99998 9 5.99998ZM9 7.49998C7.75733 7.49998 6.75 8.50738 6.75 9.74998C6.75 10.9927 7.75733 12 9 12C10.2427 12 11.25 10.9927 11.25 9.74998C11.25 8.50738 10.2427 7.49998 9 7.49998Z" fill="white"/>
</svg>
