<svg width="274" height="96" viewBox="0 0 274 96" fill="none" xmlns="http://www.w3.org/2000/svg">
<path d="M252.563 47.5472C250.215 51.6562 248.968 55.3983 248.968 59.0671C248.968 60.4612 249.262 62.0021 249.849 63.6164C253.077 62.369 256.672 55.9119 256.672 50.4822C256.672 50.0419 256.672 49.5283 256.599 48.7945C255.058 48.4277 253.737 48.0608 252.563 47.5472ZM262.396 47.6939C262.469 48.1342 262.469 48.501 262.469 49.0147C262.469 53.0503 260.488 58.0398 256.599 62.6625C252.563 67.5786 248.161 70 246.62 70C244.786 70 242.951 66.478 242.951 61.195C242.951 57.086 244.786 51.3627 248.821 44.5388C247.647 43.3648 247.207 42.2641 247.207 40.6499C247.207 37.2746 248.748 35.2201 251.683 35.2201C251.903 35.2201 252.417 35.2201 253.224 35.2935C254.911 33.0189 256.526 30.2306 258.36 27.1488C264.964 12.8407 270.174 5.79663 272.522 5.79663C273.329 5.79663 273.916 6.60376 273.916 8.36477C273.916 14.5283 270.614 19.4444 266.211 25.3145C265.111 26.8553 261.662 30.891 257.113 38.7421C258.654 40.2096 260.048 42.044 261.148 44.0985C265.257 41.7505 269.146 38.8155 272.595 35.5136L272.522 38.6688C268.853 43.0713 265.551 46.153 262.396 47.6939Z" fill="#FBD784"/>
<path d="M238.47 42.1175C238.396 41.3104 238.323 40.5766 238.323 39.9896C238.323 37.4949 239.497 34.1196 241.772 29.8638C234.434 32.8722 230.619 38.6689 230.619 41.9708C230.619 43.8051 231.572 44.6856 233.333 44.6856C234.874 44.6856 236.709 43.8785 238.47 42.1175ZM241.918 45.2726C238.91 48.5012 235.902 50.1888 232.967 50.1888C229.004 50.1888 225.556 46.52 225.556 40.5032C225.556 36.8345 227.683 31.9917 231.719 28.2496C235.168 25.0211 239.35 23.3334 242.212 23.3334C245 23.3334 247.055 24.8009 247.055 25.7548C247.055 26.1217 246.541 26.4152 245.807 27.4425C245.881 27.4425 245.954 27.4425 245.954 27.4425C247.568 27.4425 248.082 28.3963 248.082 30.671C248.082 33.8995 246.834 37.5682 244.266 41.6039C246.614 41.5305 249.549 39.3292 253.805 35.1469L253.732 38.6689C249.403 42.9246 246.247 45.346 243.386 45.346C243.019 45.346 242.505 45.346 241.918 45.2726Z" fill="#FBD784"/>
<path d="M230.1 35.5871L230.173 38.5955C223.276 46.4467 218.213 50.4823 214.764 50.4823C212.783 50.4823 211.389 48.7947 211.389 46.0064C211.389 43.1448 213.664 39.1092 217.553 33.2391C207.867 41.824 204.492 49.0148 201.85 49.0148C199.943 49.0148 199.576 46.7402 199.576 42.5578C199.576 41.9708 199.576 41.4572 199.576 40.8702C199.576 38.8157 199.649 36.9079 200.456 34.6333C201.557 31.6982 204.492 26.7087 209.555 19.8115C218.8 7.11753 225.991 1.17413 227.238 1.17413C228.632 1.17413 230.026 2.42151 230.026 3.15527C230.026 4.98965 222.469 17.0232 204.785 37.0546L204.418 40.5033C214.104 30.084 220.634 25.3146 222.542 25.3146C223.716 25.3146 225.844 27.5892 225.844 28.91C225.844 29.5704 225.037 30.671 223.569 32.5788C220.047 37.128 218.066 39.9897 218.066 41.6773C218.066 42.5578 218.727 43.1448 219.534 43.1448C221.368 43.1448 224.963 40.65 230.1 35.5871Z" fill="#FBD784"/>
<path d="M171.812 38.2285C175.334 30.3039 178.783 26.2683 181.791 26.2683C183.626 26.2683 185.167 27.0754 185.167 27.8092C185.167 28.7631 183.112 31.4046 179.15 35.8805C177.902 37.2012 177.389 38.7421 177.389 40.0629C177.389 40.0629 177.389 40.1362 177.389 40.2096C187.368 28.8364 194.852 23.9203 196.907 23.9203C197.934 23.9203 199.108 26.1215 199.108 28.2494C199.108 30.7442 197.053 31.8448 195.072 34.4863C192.504 37.8616 191.403 40.7966 191.403 41.5304C191.403 42.4842 191.844 42.9979 192.798 42.9979C194.045 42.9979 197.273 40.3564 202.777 35.3668V38.522C195.806 46.153 191.624 50.7023 187.881 50.7023C185.754 50.7023 184.213 48.7945 184.213 45.9329C184.213 43.0712 186.267 38.9622 190.303 33.3857C180.764 42.2641 177.682 49.0146 175.408 49.0146C173.353 49.0146 171.739 45.6394 171.739 40.0629C171.739 39.7693 171.739 39.109 171.812 38.2285Z" fill="#FBD784"/>
<path d="M156.891 35.8072C164.742 32.2118 168.777 28.9099 168.777 26.9288C168.777 26.3418 168.631 26.1217 168.264 26.1217C166.429 26.1217 160.486 28.9099 156.891 35.8072ZM156.597 38.7422C156.597 38.889 156.597 38.9623 156.597 39.1091C156.597 42.3376 158.505 44.2454 161.146 44.2454C164.448 44.2454 169.658 41.4571 175.822 35.5137V38.5955C168.851 46.2265 163.274 50.1888 157.845 50.1888C152.855 50.1888 149.993 47.0336 149.993 40.8701C149.993 36.3942 152.121 32.1384 156.23 28.2496C160.413 24.2873 164.815 22.3062 169.144 22.3062C172.52 22.3062 174.134 23.3334 174.134 25.3879C174.134 29.3502 167.75 36.1007 156.597 38.7422Z" fill="#FBD784"/>
<path d="M133.815 38.2285C133.082 38.7421 132.348 39.2557 131.687 39.7694L131.614 36.8343C134.622 33.6058 137.411 30.4507 139.905 27.2222C138.585 27.0021 137.337 26.8553 136.237 26.8553C135.87 26.8553 135.356 26.8553 134.843 26.8553C134.402 26.8553 134.182 26.7086 134.182 26.4151C134.182 25.6079 136.604 21.719 138.438 20.3983C139.685 19.5178 142.033 19.1509 145.555 19.1509C148.637 14.9685 149.664 12.914 154.067 12.914C154.801 12.914 155.534 13.4276 155.534 13.9413C155.534 14.6016 155.241 15.1153 154.654 15.7756L151.719 19.2243C154.14 19.371 155.388 19.8847 155.388 20.545C155.388 20.7652 153.994 23.5534 151.058 26.2683C149.664 27.5157 148.71 27.8826 146.949 27.8826C145.996 27.8826 145.335 27.8826 144.822 27.8092C140.346 33.3857 138.511 39.0356 138.511 42.3375C138.511 43.7316 139.172 44.392 140.346 44.392C142.327 44.392 146.436 41.457 152.966 35.587L153.04 38.5954C145.335 46.8868 139.245 50.9224 135.576 50.9224C132.861 50.9224 131.321 49.3081 131.321 46.5199C131.321 44.3186 132.054 41.457 133.815 38.2285Z" fill="#FBD784"/>
<path d="M113.611 35.8072C121.462 32.2118 125.498 28.9099 125.498 26.9288C125.498 26.3418 125.351 26.1217 124.984 26.1217C123.15 26.1217 117.206 28.9099 113.611 35.8072ZM113.317 38.7422C113.317 38.889 113.317 38.9623 113.317 39.1091C113.317 42.3376 115.225 44.2454 117.867 44.2454C121.168 44.2454 126.378 41.4571 132.542 35.5137V38.5955C125.571 46.2265 119.994 50.1888 114.565 50.1888C109.575 50.1888 106.713 47.0336 106.713 40.8701C106.713 36.3942 108.841 32.1384 112.95 28.2496C117.133 24.2873 121.535 22.3062 125.864 22.3062C129.24 22.3062 130.854 23.3334 130.854 25.3879C130.854 29.3502 124.47 36.1007 113.317 38.7422Z" fill="#FBD784"/>
<path d="M102.364 19.4444C102.364 16.3627 105.445 13.2075 108.087 13.2075C109.481 13.2075 110.215 13.9413 110.215 15.4822C110.215 17.9035 107.28 21.8658 104.712 21.8658C103.318 21.8658 102.364 20.8385 102.364 19.4444ZM109.261 35.5136L109.334 38.5954C103.318 45.9329 98.8417 49.8218 94.7326 49.8218C90.9905 49.8218 88.6425 46.5933 88.6425 40.6499C88.6425 35.4402 90.697 31.478 95.4664 26.7819C97.5943 24.6541 99.3553 23.4067 101.63 23.4067C103.171 23.4067 103.978 24.0671 103.978 25.3878C103.978 27.7358 101.116 32.1383 94.806 37.4947C94.5859 38.3752 94.4391 39.109 94.4391 39.8427C94.4391 41.8239 95.8333 43.1446 97.8144 43.1446C99.8689 43.1446 103.905 40.7232 109.261 35.5136Z" fill="#FBD784"/>
<path d="M62.7961 24.5073C81.6535 20.5451 90.9722 15.2621 90.9722 12.327C90.9722 10.4193 87.1567 9.46541 79.3789 9.46541C78.0581 9.46541 75.1965 9.61216 70.8674 9.97904C70.6472 14.1614 67.272 18.1237 62.7961 24.5073ZM54.8716 36.5409C52.0833 41.2369 49.6619 44.0252 48.9282 46.0063C47.9743 48.7946 44.8925 50.6289 44.2321 50.6289C43.425 50.6289 42.838 50.0419 42.838 49.0147C42.838 47.5472 45.1126 42.4109 50.469 34.4864C48.4145 33.5325 47.3139 32.9455 47.3139 31.9916C47.3139 30.9644 50.1022 25.8281 56.7793 25.608L67.4187 10.3459C62.3558 11.0797 57.5131 12.1803 52.817 13.7946L57.2929 14.2348C58.0267 14.3082 58.3202 14.2348 58.3202 14.6017C58.3202 15.4088 53.9911 16.2159 47.3873 16.2159C45.5529 16.2159 44.599 15.5556 44.599 14.6017C44.599 12.4004 46.8736 7.1174 49.4418 5.28302C50.3223 4.69602 52.23 3.88889 55.1651 3.08176C62.5026 1.02725 69.5466 0 75.6368 0C88.9177 0 95.6682 3.59539 95.6682 10.3459C95.6682 22.5262 83.7814 26.782 59.6409 29.4235L59.0539 30.3774C74.316 35.4403 82.6074 39.1824 84.2217 40.2097C86.9365 41.9707 87.0099 43.4382 87.0099 48.4277C87.0099 50.2621 86.7164 51.1426 85.6158 51.1426C84.7353 51.1426 74.8296 45.7128 54.8716 36.5409Z" fill="#FBD784"/>
<path d="M5.19359 38.2285C4.45984 38.7421 3.72608 39.2557 3.06571 39.7694L2.99233 36.8343C6.00072 33.6058 8.78898 30.4507 11.2837 27.2222C9.96298 27.0021 8.7156 26.8553 7.61497 26.8553C7.2481 26.8553 6.73447 26.8553 6.22084 26.8553C5.78059 26.8553 5.56047 26.7086 5.56047 26.4151C5.56047 25.6079 7.98185 21.719 9.81623 20.3983C11.0636 19.5178 13.4116 19.1509 16.9336 19.1509C20.0154 14.9685 21.0427 12.914 25.4452 12.914C26.1789 12.914 26.9127 13.4276 26.9127 13.9413C26.9127 14.6016 26.6192 15.1153 26.0322 15.7756L23.0972 19.2243C25.5185 19.371 26.7659 19.8847 26.7659 20.545C26.7659 20.7652 25.3718 23.5534 22.4368 26.2683C21.0427 27.5157 20.0888 27.8826 18.3278 27.8826C17.3739 27.8826 16.7135 27.8826 16.1999 27.8092C11.724 33.3857 9.88961 39.0356 9.88961 42.3375C9.88961 43.7316 10.55 44.392 11.724 44.392C13.7051 44.392 17.8141 41.457 24.3445 35.587L24.4179 38.5954C16.7135 46.8868 10.6234 50.9224 6.9546 50.9224C4.23971 50.9224 2.69883 49.3081 2.69883 46.5199C2.69883 44.3186 3.43258 41.457 5.19359 38.2285Z" fill="#FBD784"/>
<path d="M3.66876 8.95186C1.90776 11.4466 1.54088 13.0609 0.587002 13.0609C0.220125 13.0609 0 12.6206 0 11.9602C0 10.933 1.10063 8.21811 3.52201 5.13635C5.20964 3.00847 6.60378 1.90784 8.36478 1.90784C9.46541 1.90784 10.1258 2.64159 10.1258 3.74222C10.1258 5.5766 7.4109 9.83237 5.6499 9.83237C4.98952 9.83237 4.40252 9.46549 3.66876 8.95186Z" fill="#FBD784"/>
<path d="M213.384 74.9075C216.657 72.2652 218.826 68.6764 220.207 64.1016C216.933 67.6115 214.646 71.2398 213.384 74.9075ZM220.483 77.471L220.522 79.0879C216.697 83.1106 214.607 85.5163 212.595 85.5163C210.505 85.5163 208.967 82.9528 208.967 79.9556C208.967 77.0372 211.136 71.437 215.593 66.034C218.472 62.5635 220.838 60.8282 221.745 60.8282C222.218 60.8282 222.494 61.2621 222.494 62.1297C222.494 67.02 219.221 72.8173 212.635 77.7865C212.635 77.9442 212.635 78.2203 212.635 78.5358C212.635 80.8626 213.266 82.0063 214.488 82.0063C215.553 82.0063 217.367 80.3499 220.483 77.471Z" fill="white"/>
<path d="M199.961 77.6287C204.181 75.6962 206.35 73.9215 206.35 72.8567C206.35 72.5412 206.271 72.4229 206.074 72.4229C205.088 72.4229 201.893 73.9215 199.961 77.6287ZM199.803 79.2062C199.803 79.2851 199.803 79.3245 199.803 79.4034C199.803 81.1386 200.829 82.164 202.248 82.164C204.023 82.164 206.823 80.6654 210.136 77.4709V79.1273C206.389 83.2288 203.392 85.3585 200.474 85.3585C197.792 85.3585 196.254 83.6626 196.254 80.3499C196.254 77.9442 197.398 75.6568 199.606 73.5666C201.854 71.4369 204.22 70.3721 206.547 70.3721C208.361 70.3721 209.229 70.9243 209.229 72.0285C209.229 74.1582 205.798 77.7864 199.803 79.2062Z" fill="white"/>
<path d="M187.406 77.6287C191.625 75.6962 193.795 73.9215 193.795 72.8567C193.795 72.5412 193.716 72.4229 193.518 72.4229C192.533 72.4229 189.338 73.9215 187.406 77.6287ZM187.248 79.2062C187.248 79.2851 187.248 79.3245 187.248 79.4034C187.248 81.1386 188.273 82.164 189.693 82.164C191.468 82.164 194.268 80.6654 197.581 77.4709V79.1273C193.834 83.2288 190.837 85.3585 187.918 85.3585C185.237 85.3585 183.698 83.6626 183.698 80.3499C183.698 77.9442 184.842 75.6568 187.051 73.5666C189.299 71.4369 191.665 70.3721 193.992 70.3721C195.806 70.3721 196.673 70.9243 196.673 72.0285C196.673 74.1582 193.242 77.7864 187.248 79.2062Z" fill="white"/>
<path d="M184.969 77.4315V79.1274C182.799 81.6908 180.394 83.8205 177.949 85.4374C177.791 87.0543 176.805 89.184 175.109 91.2742C172.585 94.3503 169.824 95.8095 168.839 95.8095C168.208 95.8095 167.616 94.863 167.616 93.5221C167.616 90.8404 170.258 88.1192 175.306 84.8064C175.306 84.6881 175.306 84.6092 175.306 84.4909C175.306 83.5838 175.109 83.2683 174.32 82.8739C173.177 82.3218 172.072 82.2035 172.072 81.4542C172.072 80.5077 174.794 79.1274 179.29 75.4202C178.422 75.6174 176.765 75.9723 174.281 76.4062C173.689 77.0766 172.664 78.1809 171.205 79.6401V77.8654L172.546 76.4456C171.836 76.1695 171.52 75.8146 171.52 75.3413C171.52 73.7244 174.202 71.2004 175.661 71.2004C176.134 71.2004 176.371 71.4764 176.371 71.7919C176.371 72.0286 176.292 72.3046 176.056 72.699C178.54 72.4229 179.999 71.7919 180.591 71.7919C181.498 71.7919 182.011 72.699 182.011 74.4343C182.011 75.9723 180.236 76.5639 176.056 79.8372C177.239 80.3894 177.909 81.4148 178.067 82.9528C179.763 81.6908 182.168 79.995 184.969 77.4315ZM174.32 88.0009C172.427 89.2629 170.732 90.8404 169.312 93.0489C171.323 92.4968 172.901 90.8404 174.32 88.0009Z" fill="white"/>
<path d="M157.154 80.7442L156.641 79.4822L159.165 76.9977C158.573 76.6427 158.258 76.1695 158.258 75.6962C158.258 73.5666 161.571 70.4116 162.99 70.4116C163.266 70.4116 163.464 70.6482 163.464 70.9243C163.464 71.0426 163.345 71.4369 163.03 71.9891L166.145 71.7919C166.658 71.7524 167.092 71.713 167.447 71.713C168.669 71.713 169.379 72.4229 169.379 74.1976C169.379 74.868 168.472 75.3807 167.526 76.3667C165.869 78.1019 165.081 79.9161 165.081 80.6654C165.081 81.4147 165.435 81.8091 166.066 81.8091C166.934 81.8091 168.748 80.271 171.864 77.4315V79.0879C167.999 83.3077 165.435 85.5162 163.858 85.5162C162.635 85.5162 161.452 84.3725 161.452 82.5978C161.452 80.271 162.793 78.2597 165.278 75.6962C163.976 76.0117 162.714 76.2483 161.492 76.4061C159.599 78.4174 158.218 79.9161 157.154 80.7442Z" fill="white"/>
<path d="M148.7 77.6287C152.92 75.6962 155.089 73.9215 155.089 72.8567C155.089 72.5412 155.01 72.4229 154.813 72.4229C153.827 72.4229 150.632 73.9215 148.7 77.6287ZM148.542 79.2062C148.542 79.2851 148.542 79.3245 148.542 79.4034C148.542 81.1386 149.567 82.164 150.987 82.164C152.762 82.164 155.562 80.6654 158.875 77.4709V79.1273C155.128 83.2288 152.131 85.3585 149.212 85.3585C146.531 85.3585 144.993 83.6626 144.993 80.3499C144.993 77.9442 146.136 75.6568 148.345 73.5666C150.593 71.4369 152.959 70.3721 155.286 70.3721C157.1 70.3721 157.968 70.9243 157.968 72.0285C157.968 74.1582 154.536 77.7864 148.542 79.2062Z" fill="white"/>
<path d="M139.376 74.1187C134.17 76.0512 131.607 77.6681 131.607 80.7048C131.607 81.0992 131.646 81.2964 131.883 81.2964C132.593 81.2964 134.328 79.9161 137.246 77.2738C137.956 76.6428 138.784 76.0118 139.376 74.1187ZM137.68 79.2456C134.17 82.9134 132.08 84.7275 131.291 84.7275C130.424 84.7275 128.964 82.4401 128.964 78.733C128.964 76.9583 130.069 75.3808 132.356 73.7638C135.117 71.7919 137.483 70.9243 138.745 70.9243C139.455 70.9243 139.928 71.1215 140.362 71.7525C144.266 65.0481 146.514 61.7353 147.264 61.7353C147.855 61.7353 148.604 62.4452 148.604 63.4311C148.604 64.9297 146.514 67.8087 143.123 72.6595C141.387 75.1441 140.362 79.2062 140.362 80.9809C140.362 81.4147 140.717 81.888 141.111 81.888C142.097 81.888 143.793 80.1922 146.948 77.4709V79.0879C143.201 83.2683 141.111 85.6346 139.1 85.6346C137.759 85.6346 137.365 84.6881 137.365 82.6767C137.365 81.6514 137.444 80.5471 137.68 79.2456Z" fill="white"/>
<path d="M114.239 78.9302C116.132 74.6709 117.986 72.5018 119.603 72.5018C120.589 72.5018 121.417 72.9356 121.417 73.33C121.417 73.8427 120.313 75.2625 118.183 77.6682C117.513 78.378 117.237 79.2062 117.237 79.9161C117.237 79.9161 117.237 79.9555 117.237 79.995C122.6 73.8821 126.623 71.2398 127.727 71.2398C128.279 71.2398 128.91 72.4229 128.91 73.5666C128.91 74.9075 127.806 75.4991 126.741 76.9188C125.361 78.733 124.769 80.3105 124.769 80.7049C124.769 81.2176 125.006 81.4936 125.519 81.4936C126.189 81.4936 127.924 80.0739 130.882 77.3921V79.0879C127.136 83.1894 124.888 85.6346 122.876 85.6346C121.733 85.6346 120.904 84.6092 120.904 83.0711C120.904 81.5331 122.009 79.3245 124.178 76.3273C119.051 81.0992 117.394 84.7275 116.172 84.7275C115.068 84.7275 114.2 82.9134 114.2 79.9161C114.2 79.7584 114.2 79.4034 114.239 78.9302Z" fill="white"/>
<path d="M108.202 81.0204C108.163 80.5866 108.124 80.1922 108.124 79.8767C108.124 78.5358 108.755 76.7217 109.977 74.4343C106.033 76.0512 103.983 79.1668 103.983 80.9415C103.983 81.9274 104.495 82.4007 105.442 82.4007C106.27 82.4007 107.256 81.9669 108.202 81.0204ZM110.056 82.7162C108.439 84.4515 106.822 85.3585 105.245 85.3585C103.115 85.3585 101.261 83.3866 101.261 80.1527C101.261 78.1809 102.405 75.578 104.574 73.5666C106.428 71.8314 108.676 70.9243 110.214 70.9243C111.712 70.9243 112.817 71.7131 112.817 72.2258C112.817 72.4229 112.541 72.5807 112.146 73.1328C112.186 73.1328 112.225 73.1328 112.225 73.1328C113.093 73.1328 113.369 73.6455 113.369 74.8681C113.369 76.6033 112.698 78.5752 111.318 80.7443C112.58 80.7049 114.157 79.5217 116.445 77.2738L116.405 79.1668C114.079 81.4542 112.383 82.7556 110.845 82.7556C110.648 82.7556 110.371 82.7556 110.056 82.7162Z" fill="white"/>
<path d="M82.2058 84.688C80.9438 85.319 79.9578 85.8712 78.4986 85.8712C77.4338 85.8712 77 85.8317 77 85.4768C77 84.7275 78.8141 81.7302 80.2733 80.8626C81.141 80.3499 82.6396 80.1132 84.8481 79.9161C88.4369 76.2089 91.6314 70.9243 96.7977 65.5607C100.465 61.7747 103.502 60 104.449 60C105.001 60 105.829 61.0254 105.829 61.893C105.829 63.9043 104.251 67.1777 101.254 71.8708L101.688 72.4229C99.5189 74.8286 97.5471 76.0117 96.7583 76.0117C96.2456 76.0117 96.1273 75.7751 96.1273 75.0652C96.1273 73.0539 97.1921 71.082 99.0063 68.7552C100.229 67.1777 101.333 65.8762 101.688 64.417C95.8907 69.2679 92.5779 75.6173 87.6088 80.1132C92.7357 80.8626 97.0738 82.9133 101.53 84.1753C99.3612 86.6205 97.9809 87.9219 96.64 87.9219C94.4315 87.9219 89.7778 85.9106 82.2058 84.688Z" fill="white"/>
</svg>
