<svg width="704" height="135" viewBox="0 0 704 135" fill="none" xmlns="http://www.w3.org/2000/svg">
<path opacity="0.1" d="M35.855 131.5L0.575 5.5H26.675L50.795 98.92L77.075 5.5H98.315L124.775 98.92L148.895 5.5H174.995L139.715 131.5H111.455L87.695 48.34L64.115 131.5H35.855ZM197.217 96.04C200.457 107.92 210.357 112.96 222.597 112.96C231.597 112.96 238.797 109.18 242.757 103.96L261.477 114.76C253.017 127 239.517 134.02 222.237 134.02C191.997 134.02 172.917 113.32 172.917 86.5C172.917 59.68 192.177 38.98 220.437 38.98C247.077 38.98 265.977 60.04 265.977 86.5C265.977 89.92 265.617 92.98 265.077 96.04H197.217ZM196.857 78.04H242.757C239.877 65.08 230.157 59.86 220.437 59.86C208.017 59.86 199.557 66.52 196.857 78.04ZM282.186 131.5V0.100008H305.406V131.5H282.186ZM409.639 131.5H382.639L349.879 90.64V131.5H326.659V5.5H349.879V81.1L380.839 41.5H408.559L372.379 85.96L409.639 131.5ZM457.565 134.02C431.105 134.02 410.045 113.32 410.045 86.5C410.045 59.68 431.105 38.98 457.565 38.98C484.025 38.98 505.265 59.68 505.265 86.5C505.265 113.32 484.025 134.02 457.565 134.02ZM457.565 111.34C471.425 111.34 482.045 101.08 482.045 86.5C482.045 71.92 471.425 61.66 457.565 61.66C443.885 61.66 433.265 71.92 433.265 86.5C433.265 101.08 443.885 111.34 457.565 111.34ZM621.14 38.98C641.66 38.98 655.16 53.56 655.16 76.06V131.5H631.94V77.68C631.94 67.06 626.54 60.58 616.82 60.58C606.56 60.58 600.08 67.42 600.08 80.92V131.5H576.86V77.68C576.86 67.06 571.46 60.58 561.74 60.58C551.84 60.58 544.82 67.42 544.82 80.92V131.5H521.6V41.5H544.82V51.04C549.86 43.48 558.32 38.98 569.84 38.98C581 38.98 589.28 43.66 594.32 51.94C599.9 43.84 608.9 38.98 621.14 38.98ZM688.382 133.84C679.922 133.84 673.082 127 673.082 118.54C673.082 110.08 679.922 103.24 688.382 103.24C696.842 103.24 703.682 110.08 703.682 118.54C703.682 127 696.842 133.84 688.382 133.84Z" fill="white"/>
</svg>
